<?xml version="1.0" encoding="UTF-8" standalone="no"?>
<svg
   xmlns:dc="http://purl.org/dc/elements/1.1/"
   xmlns:cc="http://creativecommons.org/ns#"
   xmlns:rdf="http://www.w3.org/1999/02/22-rdf-syntax-ns#"
   xmlns:svg="http://www.w3.org/2000/svg"
   xmlns="http://www.w3.org/2000/svg"
   xmlns:sodipodi="http://sodipodi.sourceforge.net/DTD/sodipodi-0.dtd"
   xmlns:inkscape="http://www.inkscape.org/namespaces/inkscape"
   viewBox="0 0 1792 1792"
   class="pn-svg"
   version="1.1"
   id="svg4"
   sodipodi:docname="icon-angle-down-white.svg"
   inkscape:version="0.92.4 (5da689c313, 2019-01-14)">
  <metadata
     id="metadata10">
    <rdf:RDF>
      <cc:Work
         rdf:about="">
        <dc:format>image/svg+xml</dc:format>
        <dc:type
           rdf:resource="http://purl.org/dc/dcmitype/StillImage" />
        <dc:title></dc:title>
      </cc:Work>
    </rdf:RDF>
  </metadata>
  <defs
     id="defs8" />
  <sodipodi:namedview
     pagecolor="#ffffff"
     bordercolor="#666666"
     borderopacity="1"
     objecttolerance="10"
     gridtolerance="10"
     guidetolerance="10"
     inkscape:pageopacity="0"
     inkscape:pageshadow="2"
     inkscape:window-width="1632"
     inkscape:window-height="749"
     id="namedview6"
     showgrid="false"
     inkscape:pagecheckerboard="true"
     inkscape:zoom="0.13169643"
     inkscape:cx="896"
     inkscape:cy="896"
     inkscape:window-x="2193"
     inkscape:window-y="110"
     inkscape:window-maximized="0"
     inkscape:current-layer="svg4" />
  <path
     d="M1395 736q0 13-10 23l-466 466q-10 10-23 10t-23-10L407 759q-10-10-10-23t10-23l50-50q10-10 23-10t23 10l393 393 393-393q10-10 23-10t23 10l50 50q10 10 10 23z"
     id="path2"
     style="fill:#ffffff" />
  <path
     style="opacity:0;fill:#ffffff;fill-opacity:1;fill-rule:nonzero;stroke:#00bbe3;stroke-width:7.59322023;stroke-opacity:1"
     d="M 641.96228,988.97314 C 509.39015,856.35243 400.92203,742.35221 400.92203,735.63933 c 0,-6.7129 17.07339,-28.17541 37.94086,-47.69449 30.35202,-28.39075 40.60377,-34.00985 51.25424,-28.09299 7.32236,4.06794 100.42046,94.74339 206.88466,201.50101 106.4642,106.75762 197.2383,194.10474 201.7202,194.10474 4.48192,0 96.0821,-88.84065 203.55601,-197.4237 107.4739,-108.58305 201.3578,-197.42373 208.631,-197.42373 15.9228,0 77.1317,60.52042 77.1317,76.26411 0,14.71763 -478.91749,493.22742 -493.64765,493.22742 -6.26478,0 -119.85863,-108.5079 -252.43077,-241.12856 z"
     id="path817"
     inkscape:connector-curvature="0" />
  <path
     style="opacity:0;fill:#ffffff;fill-opacity:1;fill-rule:nonzero;stroke:#00bbe3;stroke-width:7.59322023;stroke-opacity:1"
     d="M 641.96228,988.97314 C 509.39015,856.35243 400.92203,742.35221 400.92203,735.63933 c 0,-6.7129 17.07339,-28.17541 37.94086,-47.69449 30.35202,-28.39075 40.60377,-34.00985 51.25424,-28.09299 7.32236,4.06794 100.42046,94.74339 206.88466,201.50101 106.4642,106.75762 197.2383,194.10474 201.7202,194.10474 4.48192,0 96.0821,-88.84065 203.55601,-197.4237 107.4739,-108.58305 201.3578,-197.42373 208.631,-197.42373 15.9228,0 77.1317,60.52042 77.1317,76.26411 0,14.71763 -478.91749,493.22742 -493.64765,493.22742 -6.26478,0 -119.85863,-108.5079 -252.43077,-241.12856 z"
     id="path819"
     inkscape:connector-curvature="0" />
</svg>
