<svg xmlns="http://www.w3.org/2000/svg" viewBox="0 0 31.985 31.999" class="pn-svg"><path fill="#00bbe3" d="M31.736 13.325c.146.872.24 1.761.24 2.674 0 8.836-7.158 16-15.988 16S0 24.835 0 15.999C0 7.162 7.158 0 15.988 0c4.052 0 7.741 1.52 10.56 4.007l-1.47 1.428c-2.451-2.113-5.602-3.436-9.09-3.436-7.729 0-13.994 6.268-13.994 14s6.265 14 13.994 14 13.994-6.268 13.994-14c0-.303-.07-.585-.089-.882l1.843-1.792zm-20.043.958a.994.994 0 0 0-1.401 0 .982.982 0 0 0 0 1.394l5.904 5.875c.025.03.015.075.044.104a.973.973 0 0 0 .736.276.98.98 0 0 0 .724-.279c.024-.023.015-.061.036-.088L31.694 7.679a.985.985 0 0 0 0-1.398.995.995 0 0 0-1.405 0l-13.32 13.251-5.276-5.249z"/></svg>