<svg xmlns="http://www.w3.org/2000/svg" viewBox="0 0 612 430.201" class="pn-svg"><path fill="#00bbe3" d="M607.154 203.479L408.529 5.188a16.167 16.167 0 0 0-.729-.729c-6.622-6.219-17.03-5.892-23.249.729s-5.892 17.03.729 23.249l170.2 170.2H16.789a16.237 16.237 0 0 0-11.953 4.841 16.233 16.233 0 0 0-4.841 11.953 15.864 15.864 0 0 0 4.781 11.619 16.242 16.242 0 0 0 11.953 4.842H555.48L385.269 402.104l-.091.091c-6.37 6.42-6.329 16.789.091 23.157a12.99 12.99 0 0 0 5.331 3.72 18.112 18.112 0 0 0 12.6 0 13.003 13.003 0 0 0 5.331-3.72L607.154 227.05c6.473-6.524 6.473-17.048 0-23.571z"/></svg>