<?xml version="1.0" standalone="no"?>
<!DOCTYPE svg PUBLIC "-//W3C//DTD SVG 20010904//EN"
 "http://www.w3.org/TR/2001/REC-SVG-20010904/DTD/svg10.dtd">
<svg version="1.0" xmlns="http://www.w3.org/2000/svg"
 width="16.000000pt" height="16.000000pt" viewBox="0 0 16.000000 16.000000"
 preserveAspectRatio="xMidYMid meet">
<metadata>
Created by potrace 1.11, written by Peter Selinger 2001-2013
</metadata>
<g transform="translate(0.000000,16.000000) scale(0.002610,-0.002610)"
fill="#000000" stroke="none">
<path d="M1691 5784 c-114 -31 -259 -120 -328 -202 -47 -56 -1302 -2235 -1325
-2299 -39 -112 -39 -324 0 -435 11 -31 305 -551 653 -1155 617 -1069 636
-1100 709 -1173 53 -54 98 -87 156 -117 150 -78 45 -73 1511 -73 l1312 0 78
25 c106 33 195 87 272 165 58 59 120 163 704 1175 352 611 649 1134 659 1163
38 109 39 304 0 413 -17 48 -1202 2115 -1289 2248 -72 111 -196 203 -335 252
l-83 29 -1320 -1 c-1120 0 -1328 -3 -1374 -15z m944 -1388 c307 -89 517 -331
556 -638 11 -91 0 -216 -27 -309 -53 -181 -195 -349 -364 -431 -169 -82 -161
-81 -707 -86 l-483 -3 -2 -442 -3 -442 -192 -3 -193 -2 0 1110 c0 980 2 1115
15 1148 21 49 51 81 100 103 38 18 71 19 640 16 536 -3 606 -5 660 -21z m1805
-626 c270 -77 469 -272 546 -535 16 -53 18 -122 21 -628 l4 -567 -188 2 -188
3 -5 560 c-5 553 -5 561 -28 615 -81 197 -277 294 -496 246 -137 -31 -244
-126 -293 -261 -16 -46 -18 -98 -21 -607 l-3 -558 -189 0 -190 0 0 528 c1 572
4 619 55 747 16 39 45 98 67 131 46 74 173 196 251 243 65 38 197 86 277 100
89 16 293 6 380 -19z"/>
<path d="M1600 3671 l0 -431 383 0 c210 0 414 5 452 10 232 34 389 226 372
454 -7 96 -20 134 -70 208 -29 44 -61 76 -105 105 -114 77 -112 77 -599 81
l-433 3 0 -430z"/>
</g>
</svg>
